<svg version="1.1" id="Layer_1" xmlns="http://www.w3.org/2000/svg" x="0" y="0" viewBox="0 0 260 260" xml:space="preserve"><style>.st1,.st2{fill:#fff}.st2{fill-rule:evenodd;clip-rule:evenodd}</style><path fill="none" d="M0 0h260v260H0z"/><path d="M66 66h127.9v127.9H66z"/><path class="st1" d="M173.8 152c-4.8 0-7.7-2.5-7.8-6h4.5c0 1.1.7 2.7 3.6 2.7 1.9 0 2.9-1.1 2.9-2-.1-1.4-1.8-1.5-3.7-1.8-1.8-.3-3.4-.6-4.5-1.2-1.4-.7-2.4-2.4-2.4-4.2 0-3.1 2.7-5.6 7.2-5.6 4.3 0 7.1 2.3 7.4 5.7h-4.3c-.1-.9-.2-2.3-2.8-2.3-1.7 0-2.9.3-3 1.5 0 1.8 3.6 1.7 6.4 2.4 2.7.7 4.4 2.3 4.4 4.7-.1 4.4-3.6 6.1-7.9 6.1m-83.1-28.7l15-8.7 8 13.8H93.6zm29.4 10.9h4.3v17.3h-4.3z"/><path class="st2" d="M83.8 143c0 2.7 2.3 4.9 5 4.9s5-2.2 5-4.9-2.3-5-5-5-5 2.3-5 5m4.9 9c-4.9 0-9-4.1-9-9 0-5 4.1-8.9 9-8.9 1.9 0 3.7.5 5.2 1.5v-1.4h4.2v17.3h-4.2v-1.1c-1.5 1-3.3 1.6-5.2 1.6"/><path class="st1" d="M146.5 128.4l-21-36.4 15.1-8.7 26 45.1z"/><path class="st2" d="M103.7 143c0 2.7 2.3 4.9 5 4.9s5-2.2 5-4.9-2.3-5-5-5-5 2.3-5 5m4.9 9c-5 0-9-4.1-9-9 0-5 4.1-8.9 9-8.9 1.9 0 3.6.5 5.1 1.5v-7.3h4.3v23.2h-4.3v-1.1c-1.5 1-3.2 1.6-5.1 1.6"/><path class="st1" d="M108.3 107.8l15.1-8.6 16.8 29.2h-15.8v4.2h-4.3v-4.2z"/><path class="st2" d="M150.1 143c0 2.7 2.3 4.9 5 4.9s4.9-2.2 4.9-4.9-2.2-5-4.9-5-5 2.3-5 5m4.8 9c-4.9 0-9-4.1-9-9 0-5 4.1-8.9 9-8.9 1.9 0 3.7.5 5.1 1.5v-1.4h4.3v17.3H160v-1.1c-1.4 1-3.2 1.6-5.1 1.6m-24.6-9c0 2.7 2.3 4.9 4.9 4.9 2.7 0 5-2.2 5-4.9s-2.3-5-5-5c-2.6 0-4.9 2.3-4.9 5m9.9-14.6h4.2v23.2h-4.2v-1.1c-1.4 1-3.2 1.5-5.1 1.5-4.9 0-9-4.1-9-9 0-5 4.1-8.9 9-8.9 1.9 0 3.7.5 5.1 1.5v-7.2z"/><path class="st1" d="M88.4 174.3h-7.5v1.9l-.7.1v-2.6h.8l3.3-8.7h.7l3.3 8.7h.8v2.5l-.7.1v-2zm-.9-.7l-2.9-7.7-2.9 7.7h5.8zm8.8-7.5l-5.6 8.2H90v-9.4h.7v8.2l5.6-8.2h.7v9.4h-.7v-8.2zm2.5 3.5c0 2.4 1.8 4.1 4.1 4.1 1.6 0 2.8-.8 3.5-2l.6.4c-.8 1.4-2.1 2.3-4.1 2.3-2.7 0-4.8-2-4.8-4.8s2.2-4.8 4.8-4.8c1.9 0 3.3.9 4.1 2.3l-.6.4c-.7-1.2-1.9-2-3.5-2-2.3 0-4.1 1.7-4.1 4.1zm14.6-4.7h.9l-4.8 4.7 4.9 4.7h-1l-4.7-4.5v4.5h-.7v-9.4h.7v4.6l4.7-4.6z"/><path class="st1" d="M113.5 169.6c0-2.8 2.1-4.8 4.8-4.8 2.6 0 4.8 2 4.8 4.8s-2.1 4.8-4.8 4.8c-2.7 0-4.8-2-4.8-4.8zm8.8 0c0-2.4-1.8-4.1-4.1-4.1s-4.1 1.7-4.1 4.1c0 2.4 1.8 4.1 4.1 4.1s4.1-1.8 4.1-4.1zm8.1.3h-5.5v4.3h-.7v-9.4h.7v4.4h5.5v-4.4h.7v9.4h-.7v-4.3zm4.6 4.4v-8.7h-3v-.7h6.8v.7h-3.1v8.7h-.7zm3.5-3.6v-.6h3.7v.6h-3.7zm12.1 3.6h-7.2v-9.4h.7v8.7h5.2v-8.7h.7v8.7h1.2v2.5l-.7.1v-1.9zm1.6-9.4h5.6v.7H153v3.6h4.6v.7H153v3.7h5.2v.7h-5.9v-9.4zm13.1 5h-5.5v4.3h-.7v-9.4h.7v4.4h5.5v-4.4h.7v9.4h-.7v-4.3zm4.7 4.4v-8.7h-3.1v-.7h6.8v.7h-3.1v8.7h-.6zm5.3-3.3v3.3h-.7v-9.4h3.2c1.9 0 3.2 1.3 3.2 3 0 1.8-1.3 3.1-3.4 3.1h-2.3zm0-5.4v4.7h2.4c1.6 0 2.6-1.1 2.6-2.4 0-1.3-.9-2.4-2.7-2.4h-2.3z"/></svg>