<svg version="1.1" id="Layer_1" xmlns="http://www.w3.org/2000/svg" x="0" y="0" viewBox="0 0 127.9 127.9" xml:space="preserve"><style>.st0,.st1{fill:#fff}.st1{fill-rule:evenodd;clip-rule:evenodd}</style><path d="M0 0h127.9v127.9H0z"/><path class="st0" d="M107.8 86c-4.8 0-7.7-2.5-7.8-6h4.5c0 1.1.7 2.7 3.6 2.7 1.9 0 2.9-1.1 2.9-2-.1-1.4-1.8-1.5-3.7-1.8-1.8-.3-3.4-.6-4.5-1.2-1.4-.7-2.4-2.4-2.4-4.2 0-3.1 2.7-5.6 7.2-5.6 4.3 0 7.1 2.3 7.4 5.7h-4.3c-.1-.9-.2-2.3-2.8-2.3-1.7 0-2.9.3-3 1.5 0 1.8 3.6 1.7 6.4 2.4 2.7.7 4.4 2.3 4.4 4.7-.2 4.4-3.7 6.1-7.9 6.1M24.6 57.2l15.1-8.6 8 13.7H27.6zm29.5 11h4.3v17.3h-4.3z"/><path class="st1" d="M17.8 77c0 2.7 2.3 4.9 5 4.9s5-2.2 5-4.9-2.3-5-5-5-5 2.3-5 5m4.8 9c-4.9 0-9-4.1-9-9 0-5 4.1-8.9 9-8.9 1.9 0 3.7.5 5.2 1.5v-1.4H32v17.3h-4.2v-1.1c-1.4 1-3.2 1.6-5.2 1.6"/><path class="st0" d="M80.5 62.3L59.5 26l15.1-8.7 26 45z"/><path class="st1" d="M37.6 77c0 2.7 2.3 4.9 5 4.9s5-2.2 5-4.9-2.3-5-5-5-5 2.3-5 5m5 9c-5 0-9-4.1-9-9 0-5 4.1-8.9 9-8.9 1.9 0 3.6.5 5.1 1.5v-7.3H52v23.2h-4.3v-1.1c-1.5 1-3.3 1.6-5.1 1.6"/><path class="st0" d="M42.2 41.8l15.1-8.7 16.9 29.2H58.4v4.3h-4.3v-4.3z"/><path class="st1" d="M84.1 77c0 2.7 2.3 4.9 5 4.9S94 79.7 94 77s-2.2-5-4.9-5c-2.8 0-5 2.3-5 5m4.8 9c-4.9 0-9-4.1-9-9 0-5 4.1-8.9 9-8.9 1.9 0 3.7.5 5.1 1.5v-1.4h4.3v17.3H94v-1.1c-1.5 1-3.2 1.6-5.1 1.6m-24.6-9c0 2.7 2.3 4.9 4.9 4.9 2.7 0 5-2.2 5-4.9s-2.3-5-5-5-4.9 2.3-4.9 5m9.9-14.7h4.2v23.2h-4.2v-1.1c-1.4 1-3.2 1.5-5.1 1.5-4.9 0-9-4.1-9-9 0-5 4.1-8.9 9-8.9 1.9 0 3.7.5 5.1 1.5v-7.2z"/><path class="st0" d="M22.4 108.2h-7.5v1.9l-.7.1v-2.6h.8l3.3-8.7h.7l3.3 8.7h.7v2.5l-.7.1v-2zm-.9-.6l-2.9-7.7-2.9 7.7h5.8zm8.7-7.6l-5.6 8.2h-.7v-9.4h.7v8.2l5.6-8.2h.7v9.4h-.7V100zm2.6 3.6c0 2.4 1.8 4.1 4.1 4.1 1.6 0 2.8-.8 3.5-2l.6.4c-.8 1.4-2.1 2.3-4.1 2.3-2.7 0-4.8-2-4.8-4.8s2.2-4.8 4.8-4.8c1.9 0 3.3.9 4.1 2.3l-.6.4c-.7-1.2-1.9-2-3.5-2-2.3 0-4.1 1.7-4.1 4.1zm14.6-4.7h.9l-4.8 4.7 4.9 4.7h-1l-4.7-4.5v4.5H42v-9.4h.7v4.6l4.7-4.6z"/><path class="st0" d="M47.4 103.6c0-2.8 2.1-4.8 4.8-4.8 2.6 0 4.8 2 4.8 4.8s-2.1 4.8-4.8 4.8c-2.6 0-4.8-2.1-4.8-4.8zm8.9 0c0-2.4-1.8-4.1-4.1-4.1s-4.1 1.7-4.1 4.1 1.8 4.1 4.1 4.1 4.1-1.8 4.1-4.1zm8 .3h-5.5v4.3h-.7v-9.4h.7v4.4h5.5v-4.4h.7v9.4h-.7v-4.3zm4.7 4.3v-8.7h-3.1v-.7h6.8v.7h-3.1v8.7H69zm3.4-3.6v-.6h3.7v.6h-3.7zm12.2 3.6h-7.2v-9.4h.7v8.7h5.2v-8.7h.7v8.7h1.2v2.5l-.7.1v-1.9zm1.6-9.3h5.6v.7h-4.9v3.6h4.6v.7h-4.6v3.7h5.2v.7h-5.9v-9.4zm13 5h-5.5v4.3H93v-9.4h.7v4.4h5.5v-4.4h.7v9.4h-.7v-4.3zm4.7 4.3v-8.7h-3.1v-.7h6.8v.7h-3.1v8.7h-.6zm5.4-3.2v3.3h-.7v-9.4h3.2c1.9 0 3.2 1.3 3.2 3 0 1.8-1.3 3.1-3.4 3.1h-2.3zm0-5.5v4.7h2.4c1.6 0 2.6-1.1 2.6-2.4 0-1.3-.9-2.4-2.7-2.4h-2.3z"/></svg>